<?xml version="1.0" encoding="UTF-8"?>
<svg width="4175px" height="348px" viewBox="0 0 4175 348" version="1.1" xmlns="http://www.w3.org/2000/svg" xmlns:xlink="http://www.w3.org/1999/xlink">
    <title>Footer BIG</title>
    <g id="Page-1" stroke="none" stroke-width="1" fill="none" fill-rule="evenodd">
        <g id="Footer-BIG" transform="translate(0.000000, -0.000000)">
            <rect id="Rectangle-9" fill="#242027" x="0" y="0" width="4175" height="347.916667"></rect>
            <g id="Social-media-icons" transform="translate(3018.336806, 174.008681)" fill="#F0F0F0" font-family="FontAwesome5Brands-Regular, Font Awesome 5 Brands" font-size="67" font-weight="normal" line-spacing="21">
                <text id="-copy">
                    <tspan x="0" y="64.7986111"></tspan>
                </text>
                <text id="-copy">
                    <tspan x="229.045139" y="64.7986111"></tspan>
                </text>
                <text id="-copy">
                    <tspan x="101.475694" y="64.7986111"></tspan>
                </text>
                <text id="-copy">
                    <tspan x="347.916667" y="64.7986111"></tspan>
                </text>
                <text id="-copy">
                    <tspan x="458.090278" y="64.7986111"></tspan>
                </text>
                <text id="-copy">
                    <tspan x="594.357639" y="64.7986111"></tspan>
                </text>
                <text id="-copy">
                    <tspan x="713.229167" y="59"></tspan>
                </text>
            </g>
            <text id="Copyright-2018-Lingo" font-family="Mulish-Regular, Mulish" font-size="40" font-weight="normal" line-spacing="32" fill="#F0F0F0">
                <tspan x="697.40625" y="201.857639">Copyright 2018 Lingopie. All rights reserved.</tspan>
            </text>
            <g id="Lingopie-Logo-Copy" transform="translate(494.454861, 110.173611)">
                <path d="M0,65.234375 C0,101.262376 29.2063739,130.46875 65.234375,130.46875 C101.262376,130.46875 130.46875,101.262376 130.46875,65.234375 C130.46875,29.2063739 101.262376,0 65.234375,0 C29.2063739,0 0,29.2063739 0,65.234375 Z" id="Path" fill="#FF6D00"></path>
                <path d="M104.763077,66.2729585 C98.9429056,66.2729585 94.3821271,61.9476443 94.3821271,55.892009 C94.3821271,49.8373507 98.9429056,45.5511178 104.763077,45.5511178 C110.621352,45.5511178 115.144026,49.8373507 115.144026,55.892009 C115.144026,61.9476443 110.621352,66.2729585 104.763077,66.2729585 L104.763077,66.2729585 Z" id="Path" fill="#FFFFFF"></path>
                <path d="M91.7724785,63.2451408 C91.7724785,68.8679516 88.6264402,73.744311 81.3123895,73.744311 C75.6895788,73.744311 72.111693,70.2836688 71.5616248,66.7839454 L76.8307505,65.2900657 C77.2235167,67.1776887 78.7965359,68.5543248 81.037844,68.5543248 C84.0256033,68.5543248 85.8741451,67.0995263 85.8741451,63.5607217 L85.8741451,62.6559914 C85.165798,63.7180236 83.4755352,64.8582182 80.6441007,64.8582182 C75.4541144,64.8582182 71.5616248,60.7683684 71.5616248,55.3419408 C71.5616248,50.1910358 75.2968125,45.7865821 80.6441007,45.7865821 C83.8292202,45.7865821 85.5204601,47.2022994 86.0705283,48.2252504 L86.0705283,46.1412442 L91.7724785,46.1412442 L91.7724785,63.2451408 Z" id="Path" fill="#FFFFFF"></path>
                <path d="M79.7149446,98.6410032 C77.5117407,98.6410032 75.7032572,96.7533802 75.7032572,94.5902346 C75.7032572,92.3880077 77.5117407,90.5805012 79.7149446,90.5805012 C81.9161944,90.5805012 83.7647362,92.3880077 83.7647362,94.5902346 C83.7647362,96.7533802 81.9161944,98.6410032 79.7149446,98.6410032 L79.7149446,98.6410032 Z" id="Path" fill="#FFFFFF"></path>
                <path d="M72.3608357,90.029456 L58.7566625,90.029456 C58.8739062,92.2316828 60.8797499,93.804702 63.1992204,93.804702 C65.362366,93.804702 66.5807231,92.7827281 67.1317683,91.2478131 L72.1253714,92.6645074 C71.1815599,96.0460101 68.0755798,98.8764675 63.1200809,98.8764675 C57.7337116,98.8764675 52.9364916,95.0230591 52.9364916,88.4564368 C52.9364916,82.1653372 57.6164679,78.1546268 62.6882334,78.1546268 C68.7438687,78.1546268 72.4790564,81.8898146 72.4790564,88.1818913 C72.4790564,89.0074821 72.400894,89.9112353 72.3608357,90.029456 L72.3608357,90.029456 Z" id="Path" fill="#FFFFFF"></path>
                <path d="M50.4059825,46.1412442 L56.1860952,46.1412442 L56.1860952,48.3815752 C57.2481274,46.5340105 59.6467373,45.6302572 61.651604,45.6302572 C66.5670447,45.6302572 68.7692715,49.1290036 68.7692715,53.4152366 L68.7692715,65.682832 L62.7917987,65.682832 L62.7917987,54.4372105 C62.7917987,52.5105063 61.7708017,51.0557078 59.6076561,51.0557078 C57.6418707,51.0557078 56.3834554,52.5105063 56.3834554,54.4772688 L56.3834554,65.682832 L50.4059825,65.682832 L50.4059825,46.1412442 Z" id="Path" fill="#FFFFFF"></path>
                <path d="M46.0953238,76.2670038 C44.2077008,76.2670038 42.6346816,74.6939847 42.6346816,72.7672805 C42.6346816,70.8405762 44.2077008,69.2675571 46.0953238,69.2675571 C48.0611092,69.2675571 49.6341284,70.8405762 49.6341284,72.7672805 C49.6341284,74.6939847 48.0611092,76.2670038 46.0953238,76.2670038 L46.0953238,76.2670038 Z" id="Path" fill="#FFFFFF"></path>
                <polygon id="Path" fill="#FFFFFF" points="43.1456686 98.2873181 49.1221644 98.2873181 49.1221644 78.7447533 43.1456686 78.7447533"></polygon>
                <polygon id="Path" fill="#FFFFFF" points="40.0650913 65.683809 46.0415871 65.683809 46.0415871 46.1412442 40.0650913 46.1412442"></polygon>
                <path d="M43.0137695,36.664048 C44.9805319,36.664048 46.5535511,38.2380442 46.5535511,40.1637714 C46.5535511,42.0904756 44.9805319,43.6634948 43.0137695,43.6634948 C41.1271235,43.6634948 39.5541043,42.0904756 39.5541043,40.1637714 C39.5541043,38.2380442 41.1271235,36.664048 43.0137695,36.664048 L43.0137695,36.664048 Z" id="Path" fill="#FFFFFF"></path>
                <path d="M29.9332846,88.2600537 L25.6480287,88.2600537 L25.6480287,98.2873181 L19.4350915,98.2873181 L19.4350915,70.4077517 L29.9332846,70.4077517 C35.5961536,70.4077517 39.4886433,74.1439165 39.4886433,79.3339027 C39.4886433,84.6030284 35.5961536,88.2600537 29.9332846,88.2600537 L29.9332846,88.2600537 Z" id="Path" fill="#FFFFFF"></path>
                <polygon id="Path" fill="#FFFFFF" points="19.067728 65.682832 19.067728 37.8042426 25.2796882 37.8042426 25.2796882 59.7454174 37.3127963 59.7454174 37.3127963 65.682832"></polygon>
                <path d="M52.5691281,42.8769852 C52.5691281,39.4954825 54.5349136,37.8833821 57.011686,37.8833821 C58.2310201,37.8833821 59.1357504,38.3162066 60.0013994,38.7881124 C60.786932,39.2600181 61.4552209,39.6527844 62.163568,39.6527844 C63.02824,39.6527844 63.5001458,39.062658 63.540204,37.9224633 L66.8816485,37.9224633 L66.8816485,38.7089729 C66.8816485,42.1696151 65.0340837,43.8217737 62.4781719,43.8217737 C61.297919,43.8217737 60.3931887,43.3879722 59.4894354,42.9170434 C58.7029258,42.5233001 58.034637,42.0904756 57.2881856,42.0904756 C56.501676,42.0904756 55.989712,42.6014626 55.9506308,43.7807384 L52.5691281,43.7807384 L52.5691281,42.8769852 Z" id="Path" fill="#FFFFFF"></path>
                <path d="M100.397704,37.8042426 C102.088944,37.8042426 103.425522,39.1417974 103.425522,40.8330373 C103.425522,42.5233001 102.088944,43.8217737 100.397704,43.8217737 C98.7074413,43.8217737 97.4099447,42.5233001 97.4099447,40.8330373 C97.4099447,39.1417974 98.7074413,37.8042426 100.397704,37.8042426 L100.397704,37.8042426 Z" id="Path" fill="#FFFFFF"></path>
                <path d="M109.088391,37.8042426 C110.778654,37.8042426 112.115231,39.1417974 112.115231,40.8330373 C112.115231,42.5233001 110.778654,43.8217737 109.088391,43.8217737 C107.397151,43.8217737 106.099654,42.5233001 106.099654,40.8330373 C106.099654,39.1417974 107.397151,37.8042426 109.088391,37.8042426 L109.088391,37.8042426 Z" id="Path" fill="#FFFFFF"></path>
                <path d="M104.763077,51.0555124 C102.521768,51.0555124 100.358623,52.5894504 100.358623,55.8918136 C100.358623,59.1560726 102.521768,60.768173 104.763077,60.768173 C107.043466,60.768173 109.166553,59.1951538 109.166553,55.8918136 C109.166553,52.5894504 107.043466,51.0555124 104.763077,51.0555124" id="Fill-5" fill="#FF6D00"></path>
                <path d="M29.3046632,75.7951958 L25.6867191,75.7951958 L25.6867191,82.9118862 L29.3046632,82.9118862 C31.6641919,82.9118862 33.2762923,81.5362272 33.2762923,79.3730816 C33.2762923,77.1317736 31.6641919,75.7951958 29.3046632,75.7951958" id="Fill-1" fill="#FF6D00"></path>
                <path d="M62.7669821,82.8730004 C60.2501514,82.8730004 58.9927131,84.7215422 58.8744924,86.1763407 L66.698553,86.1763407 C66.6203905,84.682461 65.5974395,82.8730004 62.7669821,82.8730004" id="Fill-7" fill="#FF6D00"></path>
                <path d="M81.7451164,51.0164312 C79.5038083,51.0164312 77.5380229,52.6676128 77.5380229,55.3417454 C77.5380229,58.015878 79.3465064,59.6670596 81.7451164,59.6670596 C84.1837846,59.6670596 85.9141057,58.015878 85.9141057,55.3417454 C85.9141057,52.6676128 83.9864244,51.0164312 81.7451164,51.0164312" id="Fill-3" fill="#FF6D00"></path>
            </g>
        </g>
    </g>
</svg>